<svg width="40" height="40" viewBox="0 0 40 40" fill="none" xmlns="http://www.w3.org/2000/svg">
<rect width="40" height="40" />
<path d="M3.00427 19.9603C3.00427 17.3749 2.99182 14.7895 3.00944 12.2043C3.01845 10.8804 3.65371 9.89789 4.79267 9.24375C5.96057 8.57299 7.13584 7.91503 8.31006 7.25533C9.35834 6.6664 10.411 6.0852 11.4591 5.4961C12.7458 4.77299 14.0284 4.04284 15.3153 3.32015C16.4764 2.66805 17.6242 1.98928 18.8088 1.38276C19.8894 0.82951 20.9962 0.888204 22.0619 1.48C23.2325 2.13003 24.4 2.78567 25.567 3.44227C26.608 4.02805 27.6454 4.62045 28.6864 5.20627C29.7275 5.79211 30.7719 6.372 31.8133 6.95708C33.0071 7.6277 34.1972 8.30488 35.3931 8.97153C35.8729 9.23896 36.3553 9.49358 36.7378 9.90487C37.2417 10.4466 37.5641 11.0666 37.6268 11.8094C37.6492 12.0746 37.6667 12.3411 37.6668 12.6071C37.6691 17.6478 37.6729 22.6885 37.6656 27.7291C37.6636 29.0592 37.0611 30.069 35.9108 30.7265C34.2597 31.6702 32.594 32.5885 30.9361 33.5205C29.0593 34.5756 27.1845 35.6343 25.3083 36.6906C24.1745 37.3289 23.0543 37.9934 21.901 38.5942C20.9574 39.0857 19.9442 39.1517 18.977 38.6765C17.9951 38.194 17.0537 37.6286 16.0969 37.0956C15.173 36.581 14.2515 36.0622 13.3299 35.5436C12.1494 34.8794 10.9706 34.2121 9.78954 33.5488C8.85401 33.0234 7.91335 32.507 6.98033 31.9772C6.09402 31.474 5.18327 31.0048 4.3415 30.4346C3.57464 29.9152 3.13488 29.1365 3.04742 28.1927C3.01936 27.8898 3.00648 27.5845 3.00608 27.2803C3.00285 24.8403 3.00427 22.4003 3.00427 19.9603L3.00427 19.9603ZM28.2334 25.9668C27.1403 25.3352 26.068 24.7119 24.9917 24.0958C24.5897 23.8657 24.5923 23.8808 24.2665 24.1882C23.2021 25.1925 21.9241 25.7071 20.4716 25.7484C19.9844 25.7622 19.4837 25.6861 19.0059 25.5775C17.37 25.2059 16.1458 24.2488 15.3196 22.8063C14.7361 21.7875 14.4921 20.679 14.6064 19.4935C14.6707 18.8259 14.8301 18.1918 15.1132 17.5888C15.768 16.1942 16.8138 15.2076 18.2448 14.6369C19.3581 14.1929 20.5041 14.114 21.6673 14.3955C22.7512 14.6577 23.692 15.1838 24.4614 15.9981C24.5682 16.1111 24.6517 16.1025 24.7738 16.0292C25.152 15.8021 25.5375 15.5872 25.9189 15.3654C26.6879 14.9183 27.4562 14.4697 28.2526 14.0055C27.4329 12.8984 26.4338 12.019 25.2536 11.3541C23.1606 10.175 20.9126 9.7775 18.555 10.215C13.8565 11.0868 10.6413 15.0091 10.4094 19.4506C10.1429 24.554 13.6896 28.853 18.5028 29.7675C22.6385 30.5533 26.4617 28.5459 28.2334 25.9668ZM26.941 22.4927C27.4155 22.4927 27.8728 22.5031 28.3293 22.488C28.5367 22.4811 28.5901 22.5508 28.5842 22.7494C28.5706 23.2055 28.5799 23.6622 28.5799 24.1293H30.2702C30.2702 24.0316 30.2702 23.9494 30.2702 23.8672C30.2702 23.4771 30.2745 23.087 30.2681 22.697C30.2657 22.5562 30.2988 22.4866 30.4583 22.4899C30.8712 22.4984 31.2844 22.4984 31.6973 22.4899C31.8574 22.4866 31.8892 22.5573 31.887 22.6975C31.8808 23.0952 31.8841 23.493 31.8854 23.8907C31.8857 23.9711 31.8934 24.0515 31.8972 24.1233H33.5752C33.5752 23.6353 33.5804 23.169 33.5724 22.7029C33.5696 22.5455 33.616 22.4827 33.7803 22.4897C34.0399 22.5009 34.3003 22.4927 34.5604 22.4927C34.7785 22.4927 34.9965 22.4927 35.2058 22.4927V20.8023C34.7177 20.8023 34.2514 20.7971 33.7853 20.8052C33.6276 20.8079 33.5653 20.761 33.5723 20.597C33.5834 20.3374 33.5752 20.077 33.5752 19.8169C33.5752 19.3974 33.7869 19.1877 34.2103 19.1877H35.2079V17.4973C34.8755 17.4973 34.5628 17.5006 34.2501 17.4962C34.038 17.4932 33.7363 17.5597 33.6375 17.4493C33.5234 17.3219 33.5812 17.0344 33.5768 16.8162C33.5705 16.4985 33.5752 16.1805 33.5752 15.8647H31.8848C31.8848 16.3425 31.8757 16.8008 31.8891 17.2585C31.8948 17.455 31.826 17.5079 31.6393 17.501C31.2956 17.4882 30.9511 17.4974 30.6069 17.4973C30.3825 17.4973 30.2703 17.387 30.2703 17.1663C30.2702 16.7333 30.2702 16.3003 30.2702 15.8626H28.5799C28.5799 16.2917 28.5812 16.7034 28.5795 17.115C28.5777 17.5439 28.628 17.4952 28.2028 17.497C27.7851 17.4987 27.3674 17.4973 26.9452 17.4973V19.1877C27.428 19.1877 27.8933 19.1939 28.3583 19.1845C28.5265 19.181 28.5885 19.23 28.5833 19.4045C28.5721 19.7866 28.5684 20.1697 28.5844 20.5515C28.5931 20.7587 28.5222 20.8126 28.3233 20.8066C27.8673 20.793 27.4105 20.8023 26.941 20.8023V22.4927V22.4927ZM31.8774 19.3538C31.8723 19.2946 31.7805 19.1969 31.7262 19.1953C31.2905 19.1823 30.8541 19.1831 30.4184 19.1948C30.3678 19.1962 30.2784 19.2885 30.2771 19.3405C30.2656 19.7762 30.2648 20.2126 30.278 20.6483C30.2796 20.7012 30.3822 20.7936 30.4401 20.7953C30.8682 20.8079 31.2969 20.8079 31.725 20.7948C31.7797 20.7932 31.8722 20.6965 31.8774 20.6378C31.8959 20.4252 31.8847 20.21 31.8847 19.9958C31.8847 19.7816 31.8959 19.5664 31.8774 19.3538L31.8774 19.3538Z" fill="#027AFF"/>
</svg>
