<svg width="40" height="40" viewBox="0 0 40 40" fill="none" xmlns="http://www.w3.org/2000/svg">
  <rect width="40" height="40" />
  <path d="M38 2H2V38H38V2Z" fill="#512BD4"/>
  <path d="M8.41636 25C8.16181 25 7.94545 24.9152 7.76727 24.7455C7.58908 24.5715 7.49999 24.3649 7.49999 24.1257C7.49999 23.8821 7.58908 23.6733 7.76727 23.4993C7.94545 23.3253 8.16181 23.2383 8.41636 23.2383C8.67514 23.2383 8.89363 23.3253 9.07182 23.4993C9.25424 23.6733 9.34545 23.8821 9.34545 24.1257C9.34545 24.3649 9.25424 24.5715 9.07182 24.7455C8.89363 24.9152 8.67514 25 8.41636 25Z" fill="white"/>
  <path d="M18.5921 24.8564H16.9375L12.5785 17.9794C12.4682 17.8054 12.3769 17.6249 12.3048 17.4378H12.2666C12.3006 17.638 12.3175 18.0664 12.3175 18.7232V24.8564H10.8539V15.5H12.6166L16.8294 22.2139C17.0076 22.4924 17.1221 22.6837 17.1731 22.7881H17.1985C17.1561 22.5402 17.1348 22.1204 17.1348 21.5288V15.5H18.5921V24.8564V24.8564Z" fill="white"/>
  <path d="M25.7197 24.8564H20.5969V15.5H25.516V16.818H22.1115V19.467H25.2488V20.7785H22.1115V23.545H25.7197V24.8564V24.8564Z" fill="white"/>
  <path d="M33 16.818H30.3782V24.8564H28.8636V16.818H26.2481V15.5H33V16.818V16.818Z" fill="white"/>
</svg>