<svg width="40" height="40" viewBox="0 0 40 40" fill="none" xmlns="http://www.w3.org/2000/svg">
<rect width="40" height="40" />
<path d="M28.3299 10.0852L15.5668 26.2077L12.6879 38H32.0591L38 13.8629L28.3299 10.0852Z" fill="url(#paint0_linear_52_68)"/>
<path d="M27.1926 2H7.97247L2 26.2077H30.5979L27.1926 2Z" fill="url(#paint1_linear_52_68)"/>
<path d="M28.1944 8.84836L27.1926 2L25.0307 8.84836H28.1944Z" fill="url(#paint2_linear_52_68)"/>
<path d="M31.25 8.75H8.75V31.25H31.25V8.75Z" fill="black"/>
<path d="M20 27.875H11V29H15.5H20V27.875Z" fill="white"/>
<path d="M20.7645 18.0713L19.8453 18.0713L19.8453 16.4256L21.0307 16.4257L21.3331 14.5227L20.2686 14.5226L20.2685 12.877L21.5993 12.8771L21.9013 11L23.4983 11L23.1959 12.8771L24.95 12.8772L25.252 11.0001L26.849 11.0002L26.5466 12.8772L27.4658 12.8773L27.4658 14.5229L26.2804 14.5228L25.978 16.4258L27.0425 16.4259L27.0426 18.0715L25.7122 18.0714L25.3976 20L23.801 19.9999L24.1152 18.0714L22.3615 18.0713L22.0469 19.9999L20.4503 19.9998L20.7645 18.0713ZM24.3814 16.4258L24.6838 14.5228L22.9297 14.5227L22.6273 16.4257L24.3814 16.4258Z" fill="white"/>
<path d="M11.5717 11L15.4402 11.0001C16.5122 11.0002 17.3342 11.3046 17.9066 11.9126C18.3899 12.427 18.6318 13.1132 18.6318 13.9698V13.9957C18.6318 14.7244 18.4645 15.318 18.1299 15.7765C17.7956 16.2351 17.3584 16.5715 16.8185 16.7858L18.886 20L16.7099 19.9999L14.9584 17.2357L13.4231 17.2356L13.4337 19.9998L11.5719 19.9998L11.5717 11V11ZM15.3194 15.3712C15.779 15.3712 16.1313 15.2556 16.3775 15.024C16.623 14.7928 16.746 14.4841 16.746 14.0983V14.0727C16.746 13.6444 16.6166 13.3231 16.3588 13.1084C16.1011 12.8945 15.7424 12.7871 15.2831 12.7871L13.4335 12.787L13.4336 15.3712L15.3194 15.3712H15.3194Z" fill="white"/>
<defs>
<linearGradient id="paint0_linear_52_68" x1="19.7159" y1="38.0752" x2="35.2388" y2="15.4513" gradientUnits="userSpaceOnUse">
<stop offset="0.01613" stop-color="#FF45ED"/>
<stop offset="0.4" stop-color="#DD1265"/>
<stop offset="1" stop-color="#FDB60D"/>
</linearGradient>
<linearGradient id="paint1_linear_52_68" x1="2.94018" y1="29.477" x2="27.1098" y2="6.74454" gradientUnits="userSpaceOnUse">
<stop offset="0.01613" stop-color="#FF45ED"/>
<stop offset="0.66129" stop-color="#DD1265"/>
</linearGradient>
<linearGradient id="paint2_linear_52_68" x1="26.479" y1="1.14725" x2="26.7267" y2="15.4316" gradientUnits="userSpaceOnUse">
<stop stop-color="#DD1265"/>
<stop offset="0.05507" stop-color="#DE1860"/>
<stop offset="0.70112" stop-color="#F36230"/>
<stop offset="1" stop-color="#FC801D"/>
</linearGradient>
</defs>
</svg>
