<svg width="40" height="40" viewBox="0 0 40 40" fill="none" xmlns="http://www.w3.org/2000/svg">
  <rect width="40" height="40"/>
  <path d="M19.973 38C9.77434 37.9431 1.61927 29.5441 2.01373 19.2768C2.3834 9.65488 10.3504 1.94151 20.13 2.00033C29.9639 2.05949 38.315 10.1509 37.9909 20.5787C37.6863 30.3756 29.6875 37.9747 19.973 38ZM19.9426 35.5439C22.398 35.4658 24.7036 34.9757 26.8516 33.8771C28.7145 32.9244 30.3426 31.6574 31.6689 30.0214C31.8138 29.8425 31.9664 29.7314 32.2167 29.6966C33.6326 29.5003 34.5271 28.0399 34.0668 26.6839C33.9844 26.4411 33.9994 26.2442 34.0909 26.011C34.8007 24.2014 35.2216 22.3274 35.294 20.3799C35.3529 18.794 35.0934 17.2485 34.6764 15.7276C33.6642 12.0356 31.524 9.15933 28.385 7.0061C26.5978 5.78013 24.6111 5.07225 22.4961 4.69395C22.2373 4.64764 22.068 4.54234 21.9114 4.32083C21.0213 3.06113 19.1785 2.98644 18.2451 4.19636C17.9838 4.53496 17.6979 4.66437 17.3123 4.73343C13.825 5.35818 10.9213 7.02892 8.57648 9.6823C6.40622 12.1381 5.23288 15.0376 4.8149 18.267C4.486 20.8083 4.93449 23.251 5.77107 25.6396C5.8624 25.9003 5.87712 26.1019 5.7418 26.3612C4.96244 27.8546 6.03379 29.682 7.70706 29.7134C7.99755 29.7189 8.17524 29.8175 8.35421 30.0302C11.3964 33.645 15.3287 35.3697 19.9426 35.5439V35.5439Z" fill="#106F1C"/>
  <path d="M6.46973 19.9735C6.47598 14.2164 9.96169 9.11371 15.3155 7.06822C16.0219 6.79832 16.7769 6.65661 17.5086 6.45262C17.7105 6.39633 17.8276 6.44552 17.9304 6.65096C18.3524 7.49394 19.0387 7.96277 19.9882 7.97466C20.965 7.98689 21.6796 7.52675 22.1142 6.6551C22.2276 6.42762 22.3678 6.42284 22.5725 6.46291C24.4564 6.83169 26.1836 7.57164 27.7427 8.69001C30.4292 10.6171 32.2146 13.1933 33.0679 16.3853C33.8309 19.2391 33.6881 22.0737 32.6736 24.8577C32.5898 25.0876 32.4967 25.1687 32.2361 25.1195C31.3268 24.9477 30.3924 25.3811 29.8989 26.1701C29.3909 26.9823 29.4135 27.998 29.9935 28.7614C30.167 28.9897 30.1577 29.1241 29.9688 29.3257C27.0443 32.4481 23.4496 33.9819 19.1851 33.7377C15.4567 33.5243 12.3547 31.9221 9.86721 29.1249C9.70465 28.9421 9.66527 28.8116 9.80325 28.5759C10.7127 27.0218 9.60961 25.0845 7.81315 25.0888C7.48886 25.0896 7.36924 24.9737 7.27272 24.6953C6.74223 23.1652 6.4703 21.5932 6.46973 19.9735V19.9735ZM16.8888 15.1543C16.8888 14.8486 16.8989 14.6046 16.8869 14.3617C16.8541 13.6994 16.4986 13.3691 15.8288 13.3655C15.153 13.362 14.805 13.6783 14.7554 14.3438C14.7488 14.4332 14.7509 14.5233 14.7509 14.6131C14.7507 18.1943 14.75 21.7754 14.7527 25.3566C14.7528 25.5351 14.742 25.7302 14.8075 25.8878C14.8892 26.0844 15.0074 26.3086 15.1761 26.4174C15.5684 26.6702 16.0112 26.6538 16.4273 26.4513C16.8136 26.2632 16.8739 25.8908 16.89 25.5085C16.8947 25.3964 16.8913 25.284 16.8913 25.1718C16.8913 22.8704 16.8838 20.569 16.8987 18.2677C16.9012 17.8688 16.9453 17.4539 17.0627 17.0752C17.4373 15.8669 18.5824 15.1067 20.0229 15.0572C21.7715 14.9971 22.6916 15.7028 23.0117 17.4222C23.132 18.0687 23.1785 18.7364 23.1864 19.3954C23.2107 21.4383 23.2006 23.4816 23.2031 25.5247C23.2035 25.8754 23.2618 26.2119 23.5839 26.4086C23.9962 26.6603 24.4435 26.6597 24.8696 26.452C25.2513 26.2659 25.3229 25.9017 25.3233 25.5098C25.3255 23.3321 25.3619 21.1538 25.322 18.9768C25.3069 18.1545 25.1888 17.3183 24.9935 16.5189C24.7037 15.3326 24.0748 14.3301 22.9106 13.8187C21.2616 13.0945 19.6547 13.2707 18.1367 14.2177C17.7224 14.4761 17.3513 14.804 16.8888 15.1543H16.8888Z" fill="#106F1C"/>
</svg>
